<svg width="128" height="128" viewBox="0 0 128 128" fill="none" xmlns="http://www.w3.org/2000/svg">
<path d="M84 64C84 60.0444 82.827 56.1776 80.6294 52.8886C78.4318 49.5996 75.3082 47.0362 71.6537 45.5224C67.9992 44.0087 63.9778 43.6126 60.0982 44.3843C56.2186 45.156 52.6549 47.0608 49.8579 49.8579C47.0608 52.6549 45.156 56.2186 44.3843 60.0982C43.6126 63.9778 44.0087 67.9992 45.5224 71.6537C47.0362 75.3082 49.5996 78.4318 52.8886 80.6294C56.1776 82.827 60.0444 84 64 84C69.3025 83.994 74.3861 81.8849 78.1355 78.1355C81.8849 74.3861 83.994 69.3025 84 64ZM52 64C52 61.6266 52.7038 59.3066 54.0224 57.3332C55.341 55.3598 57.2151 53.8217 59.4078 52.9135C61.6005 52.0052 64.0133 51.7676 66.3411 52.2306C68.6689 52.6936 70.8071 53.8365 72.4853 55.5147C74.1635 57.193 75.3064 59.3312 75.7694 61.6589C76.2325 63.9867 75.9948 66.3995 75.0866 68.5922C74.1783 70.7849 72.6402 72.6591 70.6669 73.9776C68.6935 75.2962 66.3734 76 64 76C60.8185 75.9964 57.7684 74.7309 55.5187 72.4813C53.2691 70.2316 52.0036 67.1815 52 64Z" fill="black"/>
<path d="M40 99.497L61.3268 124H66.6732L88 99.497V92H40V99.497ZM76.9563 100L64 114.886L51.0438 100H76.9563Z" fill="black"/>
<path d="M61.3268 4L40 28.503V36H88V28.503L66.6732 4H61.3268ZM51.0438 28L64 13.114L76.9563 28H51.0438Z" fill="black"/>
<path d="M4 61.3268V66.6732L28.5033 88H36V40H28.5033L4 61.3268ZM28 76.9565L13.1138 64L28 51.0435V76.9565Z" fill="black"/>
<path d="M99.4967 40H92V88H99.4967L124 66.6732V61.3268L99.4967 40ZM100 76.9565V51.0435L114.886 64L100 76.9565Z" fill="black"/>
</svg>
