<svg width="128" height="128" viewBox="0 0 128 128" fill="none" xmlns="http://www.w3.org/2000/svg">
<g clip-path="url(#clip0_5_91)">
<path d="M11.9999 20C11.9999 16.8174 13.2642 13.7652 15.5146 11.5147C17.7651 9.26428 20.8173 8 23.9999 8H104C107.183 8 110.235 9.26428 112.485 11.5147C114.736 13.7652 116 16.8174 116 20V48.504C119.438 49.388 122.485 51.3902 124.66 54.1956C126.835 57.001 128.016 60.4501 128.016 64C128.016 67.5499 126.835 70.999 124.66 73.8044C122.485 76.6097 119.438 78.612 116 79.496V108C116 111.183 114.736 114.235 112.485 116.485C110.235 118.736 107.183 120 104 120H23.9999C20.8173 120 17.7651 118.736 15.5146 116.485C13.2642 114.235 11.9999 111.183 11.9999 108V79.496C8.56181 78.612 5.51532 76.6097 3.34001 73.8044C1.16471 70.999 -0.0158691 67.5499 -0.0158691 64C-0.0158691 60.4501 1.16471 57.001 3.34001 54.1956C5.51532 51.3902 8.56181 49.388 11.9999 48.504V20ZM19.9999 48.504C23.438 49.388 26.4845 51.3902 28.6598 54.1956C30.8351 57.001 32.0157 60.4501 32.0157 64C32.0157 67.5499 30.8351 70.999 28.6598 73.8044C26.4845 76.6097 23.438 78.612 19.9999 79.496V108C19.9999 109.061 20.4213 110.078 21.1715 110.828C21.9216 111.579 22.939 112 23.9999 112H104C105.061 112 106.078 111.579 106.828 110.828C107.578 110.078 108 109.061 108 108V79.496C104.562 78.612 101.515 76.6097 99.34 73.8044C97.1647 70.999 95.9841 67.5499 95.9841 64C95.9841 60.4501 97.1647 57.001 99.34 54.1956C101.515 51.3902 104.562 49.388 108 48.504V20C108 18.9391 107.578 17.9217 106.828 17.1716C106.078 16.4214 105.061 16 104 16H23.9999C22.939 16 21.9216 16.4214 21.1715 17.1716C20.4213 17.9217 19.9999 18.9391 19.9999 20V48.504ZM15.9999 56C13.8782 56 11.8434 56.8429 10.3431 58.3431C8.84277 59.8434 7.99991 61.8783 7.99991 64C7.99991 66.1217 8.84277 68.1566 10.3431 69.6569C11.8434 71.1571 13.8782 72 15.9999 72C18.1216 72 20.1565 71.1571 21.6568 69.6569C23.1571 68.1566 23.9999 66.1217 23.9999 64C23.9999 61.8783 23.1571 59.8434 21.6568 58.3431C20.1565 56.8429 18.1216 56 15.9999 56ZM112 56C109.878 56 107.843 56.8429 106.343 58.3431C104.843 59.8434 104 61.8783 104 64C104 66.1217 104.843 68.1566 106.343 69.6569C107.843 71.1571 109.878 72 112 72C114.122 72 116.156 71.1571 117.657 69.6569C119.157 68.1566 120 66.1217 120 64C120 61.8783 119.157 59.8434 117.657 58.3431C116.156 56.8429 114.122 56 112 56Z" fill="black"/>
<path d="M91.472 32H36.528L36 47.952H39.088C40.768 37.936 43.984 36.384 56.472 35.992L59.216 35.904V86.648C59.216 90.944 58.288 91.968 50.824 92.632V96H77.176V92.632C69.672 91.968 68.744 90.952 68.744 86.648V35.904L71.528 35.984C84.008 36.384 87.232 37.936 88.912 47.952H92L91.472 32Z" fill="black"/>
</g>
<defs>
<clipPath id="clip0_5_91">
<rect width="128" height="128" fill="white"/>
</clipPath>
</defs>
</svg>
