<svg width="128" height="128" viewBox="0 0 128 128" fill="none" xmlns="http://www.w3.org/2000/svg">
<path d="M4 79.2C5.06087 79.2 6.07828 79.6214 6.82843 80.3716C7.57857 81.1217 8 82.1391 8 83.2V103.2C8 105.322 8.84285 107.357 10.3431 108.857C11.8434 110.357 13.8783 111.2 16 111.2H112C114.122 111.2 116.157 110.357 117.657 108.857C119.157 107.357 120 105.322 120 103.2V83.2C120 82.1391 120.421 81.1217 121.172 80.3716C121.922 79.6214 122.939 79.2 124 79.2C125.061 79.2 126.078 79.6214 126.828 80.3716C127.579 81.1217 128 82.1391 128 83.2V103.2C128 107.443 126.314 111.513 123.314 114.514C120.313 117.514 116.243 119.2 112 119.2H16C11.7565 119.2 7.68687 117.514 4.68629 114.514C1.68571 111.513 0 107.443 0 103.2V83.2C0 82.1391 0.421427 81.1217 1.17157 80.3716C1.92172 79.6214 2.93913 79.2 4 79.2Z" fill="black"/>
<path d="M61.1679 9.16801C61.5395 8.7955 61.9809 8.49996 62.4669 8.29831C62.9528 8.09666 63.4738 7.99286 63.9999 7.99286C64.5261 7.99286 65.047 8.09666 65.533 8.29831C66.019 8.49996 66.4604 8.7955 66.8319 9.16801L90.8319 33.168C91.583 33.9191 92.005 34.9378 92.005 36C92.005 37.0622 91.583 38.0809 90.8319 38.832C90.0808 39.5831 89.0621 40.0051 87.9999 40.0051C86.9377 40.0051 85.919 39.5831 85.1679 38.832L67.9999 21.656V92C67.9999 93.0609 67.5785 94.0783 66.8284 94.8284C66.0782 95.5786 65.0608 96 63.9999 96C62.9391 96 61.9216 95.5786 61.1715 94.8284C60.4214 94.0783 59.9999 93.0609 59.9999 92V21.656L42.8319 38.832C42.46 39.2039 42.0185 39.4989 41.5326 39.7002C41.0467 39.9015 40.5259 40.0051 39.9999 40.0051C39.474 40.0051 38.9532 39.9015 38.4673 39.7002C37.9813 39.4989 37.5398 39.2039 37.1679 38.832C36.796 38.4601 36.501 38.0186 36.2997 37.5327C36.0985 37.0468 35.9949 36.526 35.9949 36C35.9949 35.4741 36.0985 34.9533 36.2997 34.4673C36.501 33.9814 36.796 33.5399 37.1679 33.168L61.1679 9.16801Z" fill="black"/>
</svg>
