<svg width="128" height="128" viewBox="0 0 128 128" fill="none" xmlns="http://www.w3.org/2000/svg">
<path d="M111.662 36.6625L91.3375 16.3375C90.4 15.4 89.25 14.7125 88 14.3375V14H18C15.7875 14 14 15.7875 14 18V110C14 112.213 15.7875 114 18 114H110C112.213 114 114 112.213 114 110V42.3125C114 40.1875 113.162 38.1625 111.662 36.6625ZM48 23H80V36H48V23ZM105 105H23V23H40V40C40 42.2125 41.7875 44 44 44H84C86.2125 44 88 42.2125 88 40V25.725L105 42.725V105ZM64 55.25C54.0625 55.25 46 63.3125 46 73.25C46 83.1875 54.0625 91.25 64 91.25C73.9375 91.25 82 83.1875 82 73.25C82 63.3125 73.9375 55.25 64 55.25ZM64 83.25C58.475 83.25 54 78.775 54 73.25C54 67.725 58.475 63.25 64 63.25C69.525 63.25 74 67.725 74 73.25C74 78.775 69.525 83.25 64 83.25Z" fill="black"/>
</svg>
